<svg width="20" height="17" viewBox="0 0 20 17" fill="none" xmlns="http://www.w3.org/2000/svg">
<path d="M17.1 3.8C16.72 3.3 16.13 3 15.5 3H13V2C13 0.9 12.1 0 11 0H2C0.9 0 0 0.9 0 2V12C0 13.1 0.9 14 2 14C2 15.65 3.35 17 5 17C6.65 17 8 15.65 8 14H12C12 15.65 13.35 17 15 17C16.65 17 18 15.65 18 14C19.1 14 20 13.1 20 12V8.33C20 7.9 19.86 7.47 19.6 7.13L17.1 3.8ZM15.5 5L17 7H13V5H15.5ZM5 15C4.82448 14.9998 4.65209 14.9535 4.50005 14.8658C4.34801 14.7781 4.22164 14.6521 4.13358 14.5002C4.04552 14.3484 3.99884 14.1761 3.99821 14.0006C3.99758 13.8251 4.04303 13.6525 4.13 13.5C4.5 12.87 5.49 12.87 5.86 13.5C5.95 13.65 5.99 13.82 5.99 13.99C5.99 14.54 5.54 14.99 4.99 14.99L5 15ZM7.23 12C7.23 12 7.18 11.95 7.15 11.93C7.09 11.87 7.03 11.82 6.98 11.77C6.86 11.66 6.73 11.56 6.6 11.48C6.39078 11.346 6.16572 11.2385 5.93 11.16C5.86 11.14 5.79 11.11 5.72 11.09C5.49 11.03 5.25 11 5 11C4.625 11 4.51 11.04 4.28 11.09C4.21 11.11 4.14 11.14 4.07 11.16C3.91 11.21 3.76 11.27 3.62 11.35C3.55 11.39 3.47 11.43 3.4 11.48C3.27 11.57 3.14 11.66 3.02 11.77C2.96 11.82 2.9 11.87 2.84 11.93C2.82 11.96 2.79 11.97 2.76 12H1.99V2H10.99V12H7.22H7.23ZM15 15C14.8245 14.9998 14.6521 14.9535 14.5 14.8658C14.348 14.7781 14.2216 14.6521 14.1336 14.5002C14.0455 14.3484 13.9988 14.1761 13.9982 14.0006C13.9976 13.8251 14.043 13.6525 14.13 13.5C14.5 12.87 15.49 12.87 15.86 13.5C15.95 13.65 15.99 13.82 15.99 13.99C15.99 14.54 15.54 14.99 14.99 14.99L15 15ZM18 12H17.23C17.23 12 17.18 11.95 17.15 11.93C17.09 11.87 17.03 11.82 16.98 11.77C16.86 11.66 16.73 11.56 16.6 11.48C16.3908 11.346 16.1657 11.2385 15.93 11.16C15.86 11.14 15.79 11.11 15.72 11.09C15.49 11.03 15.25 11 15 11C14.625 11 14.53 11.04 14.3 11.09C14.24 11.1 14.18 11.12 14.12 11.14C13.94 11.2 13.76 11.27 13.6 11.36L13.48 11.42C13.31 11.52 13.15 11.63 13 11.77V9.01H18V12.01V12Z" fill="#111111"/>
</svg>
