<svg width="19" height="22" viewBox="0 0 19 22" fill="none" xmlns="http://www.w3.org/2000/svg">
<path d="M9.99623 20.5607L9.98522 20.5627L9.91422 20.5977L9.89423 20.6017L9.88023 20.5977L9.80923 20.5627C9.79856 20.5593 9.79056 20.561 9.78522 20.5677L9.78123 20.5777L9.76423 21.0057L9.76923 21.0257L9.77923 21.0387L9.88322 21.1127L9.89822 21.1167L9.91022 21.1127L10.0142 21.0387L10.0262 21.0227L10.0302 21.0057L10.0132 20.5787C10.0106 20.568 10.0049 20.562 9.99623 20.5607ZM10.2612 20.4477L10.2482 20.4497L10.0632 20.5427L10.0532 20.5527L10.0502 20.5637L10.0682 20.9937L10.0732 21.0057L10.0812 21.0127L10.2822 21.1057C10.2949 21.109 10.3046 21.1063 10.3112 21.0977L10.3152 21.0837L10.2812 20.4697C10.2779 20.4577 10.2712 20.4503 10.2612 20.4477ZM9.54622 20.4497C9.54182 20.447 9.53655 20.4461 9.53152 20.4473C9.52649 20.4484 9.52209 20.4514 9.51923 20.4557L9.51322 20.4697L9.47923 21.0837C9.47989 21.0957 9.48556 21.1037 9.49623 21.1077L9.51122 21.1057L9.71222 21.0127L9.72223 21.0047L9.72622 20.9937L9.74323 20.5637L9.74022 20.5517L9.73022 20.5417L9.54622 20.4497Z" fill="#111111"/>
<path d="M15.8232 0.0996594L16.2092 0.155659C16.8092 0.250659 17.4812 0.40966 17.8942 0.822659C18.3072 1.23566 18.4672 1.90866 18.5622 2.50866L18.6182 2.89366C18.7442 3.80366 18.7772 4.99666 18.5622 6.32066C18.1382 8.93366 16.7472 12.0507 13.2542 14.4657C13.2389 14.6442 13.2333 14.8235 13.2372 15.0027L13.2542 15.5457C13.2642 15.9077 13.2582 16.2687 13.1582 16.6157C12.9682 17.2757 12.2912 17.7107 11.6582 18.0227L11.3482 18.1697L10.9482 18.3457L10.6752 18.4557C9.96823 18.7257 9.11523 18.9147 8.55723 18.3557C8.30423 18.1027 8.18723 17.7587 8.09323 17.4147L8.04723 17.2427C7.88723 16.6357 7.70623 16.0327 7.48023 15.4487C7.41784 15.5245 7.35176 15.5973 7.28223 15.6667C6.73723 16.2107 5.99823 16.4847 5.25923 16.6967L4.76823 16.8317L4.27823 16.9617L3.80023 17.0817L3.36823 17.1817L2.85123 17.2917L2.52823 17.3547C2.36714 17.3845 2.20121 17.3747 2.04475 17.3261C1.8883 17.2775 1.74601 17.1916 1.63017 17.0757C1.51433 16.9599 1.4284 16.8176 1.37981 16.6611C1.33121 16.5047 1.3214 16.3388 1.35123 16.1777L1.46223 15.6267L1.59123 15.0487L1.71523 14.5387L1.94023 13.6937C2.16323 12.8737 2.43423 12.0287 3.04023 11.4237L3.13923 11.3287L2.37623 11.0547L1.60923 10.7907C1.16023 10.6427 0.688228 10.4867 0.362228 10.1607C-0.233772 9.56466 0.0192279 8.63466 0.316228 7.90366L0.482228 7.51666L0.619228 7.21566C0.936228 6.54166 1.38623 5.76566 2.10223 5.55966C2.44923 5.45966 2.80923 5.45366 3.17223 5.46266L3.71523 5.48066C3.89523 5.48533 4.07423 5.47966 4.25223 5.46366C6.66623 1.97066 9.78423 0.579659 12.3972 0.155659C13.5303 -0.0310351 14.6847 -0.049904 15.8232 0.0996594ZM12.7172 2.12966C10.5192 2.48666 7.84823 3.66366 5.76423 6.79866C5.51123 7.17866 5.08423 7.35966 4.64923 7.42866C4.40323 7.46866 4.15523 7.47866 3.90623 7.47866L3.15923 7.46766C3.03523 7.46699 2.91089 7.46899 2.78623 7.47366C2.48223 7.87766 2.27023 8.35766 2.11123 8.83466L3.61123 9.37966L4.22823 9.61266C5.35623 10.0547 6.44823 10.5897 7.28823 11.4297C8.70323 12.8447 9.42223 14.6957 9.94223 16.5867C10.3982 16.4267 10.8562 16.2227 11.2442 15.9317L11.2502 15.5587L11.2392 14.8127C11.2392 14.5647 11.2492 14.3167 11.2892 14.0687C11.3572 13.6337 11.5392 13.2067 11.9192 12.9537C15.0542 10.8697 16.2312 8.19866 16.5882 6.00066C16.7682 4.89066 16.7382 3.89866 16.6372 3.16766C16.5983 2.8644 16.5338 2.56499 16.4442 2.27266C16.1519 2.18344 15.8525 2.11921 15.5492 2.08066C14.6079 1.95867 13.6537 1.97451 12.7172 2.12966ZM4.45323 12.8377C4.10323 13.2607 3.94023 13.8157 3.80923 14.3657L3.70123 14.8337L3.64623 15.0597L4.34023 14.8967C4.89023 14.7667 5.44623 14.6017 5.86823 14.2517C6.05574 14.064 6.16102 13.8096 6.16093 13.5443C6.16084 13.279 6.05537 13.0247 5.86773 12.8372C5.68009 12.6497 5.42564 12.5444 5.16037 12.5445C4.8951 12.5445 4.64074 12.65 4.45323 12.8377ZM10.1102 5.76766C10.2959 5.5819 10.5164 5.43454 10.759 5.33399C11.0017 5.23343 11.2617 5.18165 11.5244 5.18161C11.787 5.18156 12.0471 5.23325 12.2898 5.33372C12.5325 5.43419 12.753 5.58147 12.9387 5.76716C13.1245 5.95285 13.2718 6.17331 13.3724 6.41595C13.473 6.65859 13.5247 6.91866 13.5248 7.18131C13.5248 7.44396 13.4731 7.70404 13.3727 7.94672C13.2722 8.18939 13.1249 8.4099 12.9392 8.59566C12.5641 8.97081 12.0553 9.18156 11.5247 9.18156C10.9942 9.18156 10.4854 8.97081 10.1102 8.59566C9.73508 8.22051 9.52432 7.7117 9.52432 7.18116C9.52432 6.65062 9.73508 6.14181 10.1102 5.76666V5.76766Z" fill="#111111"/>
</svg>
